<?xml version="1.0" standalone="no"?>
<!DOCTYPE svg PUBLIC "-//W3C//DTD SVG 20010904//EN"
 "http://www.w3.org/TR/2001/REC-SVG-20010904/DTD/svg10.dtd">
<svg version="1.0" xmlns="http://www.w3.org/2000/svg"
 width="500.000000pt" height="500.000000pt" viewBox="0 0 500.000000 500.000000"
 preserveAspectRatio="xMidYMid meet">

<g transform="translate(0.000000,500.000000) scale(0.100000,-0.100000)"
fill="#000000" stroke="none">
<path d="M2440 3777 c0 -49 -31 -123 -76 -182 -32 -43 -44 -78 -32 -98 5 -10
39 -31 76 -48 147 -66 147 -101 3 -271 -72 -84 -95 -136 -95 -220 0 -37 -4
-62 -8 -55 -4 6 -8 44 -8 83 0 65 4 80 45 162 25 49 49 106 52 125 8 54 -23
79 -148 117 -124 38 -155 53 -191 93 -33 34 -37 17 -8 -31 21 -34 44 -50 150
-104 38 -19 66 -41 68 -51 2 -11 -27 -50 -81 -107 -105 -110 -130 -166 -125
-278 3 -80 -1 -79 -45 3 -19 34 -22 56 -22 142 0 99 -1 101 -19 85 -50 -45
-96 -158 -96 -237 0 -140 102 -280 253 -350 89 -41 156 -55 255 -55 230 1 428
123 482 298 38 121 23 206 -50 286 -26 28 -52 61 -58 73 -15 27 -15 93 -2 129
10 24 9 26 -5 14 -26 -22 -45 -66 -45 -106 0 -21 16 -71 40 -121 43 -91 50
-146 25 -179 -14 -18 -14 -18 -15 5 0 27 -34 104 -53 119 -9 8 -11 -5 -9 -56
3 -75 -18 -123 -63 -144 -85 -38 -162 151 -106 260 10 20 46 70 79 110 86 106
100 175 45 224 -10 10 -55 34 -98 54 -128 58 -143 82 -110 174 17 48 20 147 5
170 -7 11 -10 2 -10 -33z"/>
<path d="M4183 3241 c-17 -11 -49 -44 -72 -74 -87 -119 -200 -192 -471 -307
-91 -39 -188 -87 -215 -108 -66 -50 -107 -117 -112 -185 l-5 -52 39 60 c81
124 163 175 488 305 256 102 352 150 412 207 72 68 84 136 28 161 -36 17 -55
15 -92 -7z"/>
<path d="M3087 2862 c100 -65 17 -179 -214 -296 -275 -137 -708 -224 -931
-186 -122 20 -174 86 -121 154 31 39 8 31 -33 -11 -87 -91 -78 -154 27 -199
53 -23 258 -30 397 -14 296 33 677 161 865 288 72 49 139 122 146 160 11 50
-49 103 -133 118 l-35 6 32 -20z"/>
<path d="M3243 2646 c-49 -75 -211 -174 -428 -259 -388 -153 -870 -211 -1038
-126 l-38 20 12 -23 c42 -79 191 -177 324 -213 81 -22 301 -31 406 -16 404 60
748 322 785 600 4 28 5 51 3 51 -2 0 -14 -15 -26 -34z"/>
<path d="M742 1741 c-123 -31 -150 -207 -43 -278 68 -46 193 -23 232 41 32 53
26 66 -31 66 -29 0 -61 -7 -75 -16 -43 -28 -86 6 -70 56 9 27 51 37 74 16 11
-10 36 -16 69 -16 60 0 66 12 32 67 -33 54 -115 82 -188 64z"/>
<path d="M1125 1741 c-78 -19 -115 -69 -115 -155 0 -92 62 -146 167 -146 40 0
68 6 91 20 115 70 88 243 -43 279 -44 12 -56 12 -100 2z m76 -111 c23 -13 25
-53 3 -74 -29 -30 -74 -10 -74 32 0 46 30 64 71 42z"/>
<path d="M1495 1736 c-53 -20 -93 -68 -101 -123 -8 -58 26 -129 76 -155 74
-39 189 -16 234 45 30 40 29 134 0 174 -45 60 -135 86 -209 59z m99 -112 c22
-21 20 -47 -4 -69 -41 -37 -102 24 -64 66 21 23 47 24 68 3z"/>
<path d="M3173 1739 c-67 -20 -96 -104 -50 -147 12 -12 46 -26 75 -32 33 -8
52 -17 52 -26 0 -8 -9 -14 -20 -14 -11 0 -20 5 -20 10 0 6 -25 10 -55 10 -48
0 -55 -3 -55 -19 0 -11 11 -32 24 -48 21 -24 32 -28 93 -31 103 -6 153 27 153
99 0 35 -52 77 -103 84 -51 8 -66 20 -48 38 8 8 14 8 23 -1 17 -17 118 -16
118 2 0 25 -41 65 -78 76 -43 12 -65 12 -109 -1z"/>
<path d="M1790 1590 l0 -150 60 0 60 0 0 50 c0 29 4 50 11 50 6 0 20 -22 32
-50 l21 -50 67 0 68 0 -33 71 -32 72 28 78 27 79 -63 0 -64 0 -14 -42 c-8 -24
-22 -44 -31 -46 -14 -3 -17 5 -17 42 l0 46 -60 0 -60 0 0 -150z"/>
<path d="M2290 1590 l0 -150 61 0 62 0 -6 55 c-6 59 2 70 23 30 19 -36 69 -35
92 3 l17 27 1 -57 0 -58 60 0 60 0 0 150 0 150 -49 0 c-47 0 -51 -2 -91 -50
-23 -27 -45 -50 -48 -50 -4 1 -24 23 -45 50 -37 48 -40 50 -88 50 l-49 0 0
-150z"/>
<path d="M2809 1713 c-6 -15 -30 -83 -54 -150 l-44 -123 64 0 c54 0 63 3 68
20 4 15 14 20 40 20 27 0 37 -5 42 -20 5 -17 15 -20 66 -20 32 0 59 4 59 9 0
5 -22 71 -49 148 l-48 138 -67 3 c-64 3 -66 2 -77 -25z m88 -159 c-3 -3 -12
-4 -19 -2 -12 2 -13 10 -5 38 l10 35 10 -33 c6 -18 7 -35 4 -38z"/>
<path d="M3422 1688 l3 -53 43 -3 42 -3 0 -95 0 -94 60 0 60 0 0 95 0 95 40 0
40 0 0 55 0 55 -146 0 -145 0 3 -52z"/>
<path d="M3780 1590 l0 -150 115 0 115 0 0 40 0 40 -60 0 c-47 0 -60 3 -60 15
0 11 12 15 50 15 l50 0 0 40 0 40 -50 0 c-38 0 -50 4 -50 15 0 12 13 15 55 15
l55 0 0 40 0 40 -110 0 -110 0 0 -150z"/>
<path d="M4070 1591 l0 -151 60 0 60 0 0 41 c0 49 18 49 35 -2 12 -34 12 -34
78 -37 l66 -3 -20 47 c-20 44 -20 49 -5 81 25 52 21 97 -13 135 l-29 33 -116
3 -116 4 0 -151z m168 37 c-2 -15 -11 -24 -25 -26 -19 -3 -23 1 -23 22 0 21 5
26 26 26 21 0 25 -4 22 -22z"/>
<path d="M1788 1314 c-5 -4 -8 -27 -8 -51 l0 -43 39 0 c59 0 94 48 57 79 -18
15 -79 25 -88 15z m71 -28 c17 -20 3 -46 -25 -46 -20 0 -24 5 -24 30 0 23 5
30 19 30 10 0 24 -6 30 -14z"/>
<path d="M1947 1313 c-4 -3 -7 -26 -7 -50 l0 -43 45 0 c25 0 45 5 45 10 0 6
-13 10 -30 10 -16 0 -30 5 -30 10 0 6 11 10 25 10 14 0 25 5 25 10 0 6 -11 10
-25 10 -14 0 -25 5 -25 10 0 6 14 10 31 10 17 0 28 4 24 10 -7 11 -68 14 -78
3z"/>
<path d="M2080 1270 c0 -27 5 -50 10 -50 6 0 10 7 10 15 0 8 9 15 21 15 29 0
59 18 59 35 0 19 -32 35 -69 35 -30 0 -31 -1 -31 -50z m70 15 c0 -9 -9 -15
-25 -15 -16 0 -25 6 -25 15 0 9 9 15 25 15 16 0 25 -6 25 -15z"/>
<path d="M2230 1282 c0 -45 14 -62 50 -62 36 0 50 17 50 62 0 49 -18 50 -22 1
-3 -33 -6 -38 -28 -38 -22 0 -25 5 -28 38 -4 49 -22 48 -22 -1z"/>
<path d="M2390 1270 c0 -27 5 -50 10 -50 6 0 10 23 10 50 0 28 -4 50 -10 50
-5 0 -10 -22 -10 -50z"/>
<path d="M2483 1314 c-7 -3 -13 -14 -13 -25 0 -14 9 -21 30 -26 17 -3 33 -9
35 -13 8 -14 -27 -21 -42 -9 -16 14 -31 3 -16 -12 6 -6 26 -9 44 -7 26 2 35 8
37 25 2 17 -3 23 -27 28 -43 9 -53 29 -12 23 20 -3 30 -1 28 6 -4 12 -45 18
-64 10z"/>
<path d="M2708 1309 c-22 -12 -24 -31 -3 -23 11 5 15 -1 15 -19 0 -17 -7 -27
-22 -32 -20 -7 -18 -9 16 -12 37 -4 63 5 39 14 -8 3 -13 22 -13 44 0 41 -4 45
-32 28z"/>
<path d="M2831 1306 c-20 -24 -6 -46 31 -46 30 0 31 -1 16 -16 -13 -13 -20
-14 -38 -4 -18 10 -21 9 -18 -2 3 -7 19 -13 39 -13 28 0 35 5 43 28 7 19 7 34
0 45 -14 22 -57 27 -73 8z m54 -15 c3 -5 1 -13 -5 -16 -15 -9 -43 3 -35 15 8
13 32 13 40 1z"/>
<path d="M2981 1306 c-20 -24 -6 -46 31 -46 30 0 31 -1 16 -16 -13 -13 -20
-14 -38 -4 -18 10 -21 9 -18 -2 3 -7 19 -13 39 -13 28 0 35 5 43 28 7 19 7 34
0 45 -14 22 -57 27 -73 8z m54 -15 c3 -5 1 -13 -5 -16 -15 -9 -43 3 -35 15 8
13 32 13 40 1z"/>
<path d="M3136 1307 c-22 -16 -18 -65 5 -80 47 -29 101 32 64 73 -21 23 -44
25 -69 7z m53 -21 c15 -18 3 -46 -20 -46 -22 0 -34 22 -25 45 7 19 30 19 45 1z"/>
</g>
</svg>
